<?xml version="1.0" standalone="no"?>
<!DOCTYPE svg PUBLIC "-//W3C//DTD SVG 20010904//EN"
 "http://www.w3.org/TR/2001/REC-SVG-20010904/DTD/svg10.dtd">
<svg version="1.0" xmlns="http://www.w3.org/2000/svg"
 width="1260.000000pt" height="1260.000000pt" viewBox="0 0 1260.000000 1260.000000"
 preserveAspectRatio="xMidYMid meet">
<metadata>
Created by potrace 1.14, written by Peter Selinger 2001-2017
</metadata>
<g transform="translate(0.000000,1260.000000) scale(0.100000,-0.100000)"
fill="#000000" stroke="none">
<path d="M3790 11371 l-2485 -548 -3 -4501 -2 -4502 22 -5 c13 -3 1138 -250
2501 -550 l2477 -545 2478 545 c1362 300 2487 547 2500 550 l22 5 0 4500 c0
2475 -2 4500 -5 4500 -3 0 -1131 248 -2506 550 -1375 303 -2503 550 -2507 549
-4 0 -1125 -247 -2492 -548z m602 -2530 l3 -1749 1644 1749 1644 1749 1161 0
1161 0 -220 -222 c-121 -123 -910 -914 -1752 -1758 -843 -845 -1533 -1541
-1533 -1547 0 -9 1479 -2036 3561 -4881 l149 -202 -1142 2 -1141 3 -1327 1899
c-729 1044 -1330 1898 -1334 1898 -4 0 -203 -200 -442 -444 l-434 -443 0
-1457 0 -1458 -75 0 -75 0 0 4230 0 4230 -185 0 -185 0 0 -4230 0 -4230 -100
0 -100 0 0 4230 0 4230 -180 0 -180 0 0 -4230 0 -4230 -100 0 -100 0 0 4230 0
4230 -185 0 -185 0 0 -4230 0 -4230 -75 0 -75 0 0 4305 0 4305 900 0 900 0 2
-1749z"/>
<path d="M0 6320 l0 -4500 500 0 500 0 0 4500 0 4500 -500 0 -500 0 0 -4500z"/>
<path d="M11600 6320 l0 -4500 500 0 500 0 0 4500 0 4500 -500 0 -500 0 0
-4500z"/>
</g>
</svg>
