<?xml version="1.0" encoding="utf-8"?>
<!-- Generator: Adobe Illustrator 24.1.2, SVG Export Plug-In . SVG Version: 6.00 Build 0)  -->
<svg version="1.1" id="Capa_1" xmlns="http://www.w3.org/2000/svg" xmlns:xlink="http://www.w3.org/1999/xlink" x="0px" y="0px"
	 viewBox="0 0 511 511" style="enable-background:new 0 0 511 511;" xml:space="preserve">
<style type="text/css">
	.st0{fill:#FFFFFF;}
</style>
<g>
	<path class="st0" d="M471.5,56H423V31.5c0-4.1-3.4-7.5-7.5-7.5s-7.5,3.4-7.5,7.5V56h-65V31.5c0-4.1-3.4-7.5-7.5-7.5
		s-7.5,3.4-7.5,7.5V56h-65V31.5c0-4.1-3.4-7.5-7.5-7.5s-7.5,3.4-7.5,7.5V56h-65V31.5c0-4.1-3.4-7.5-7.5-7.5s-7.5,3.4-7.5,7.5V56h-65
		V31.5c0-4.1-3.4-7.5-7.5-7.5S88,27.4,88,31.5V56H39.5C17.7,56,0,73.7,0,95.5v352C0,469.3,17.7,487,39.5,487h432
		c21.8,0,39.5-17.7,39.5-39.5v-352C511,73.7,493.3,56,471.5,56z M496,447.5c0,13.5-11,24.5-24.5,24.5h-432C26,472,15,461,15,447.5
		v-352C15,82,26,71,39.5,71H88v24.5c0,4.1,3.4,7.5,7.5,7.5s7.5-3.4,7.5-7.5V71h65v24.5c0,4.1,3.4,7.5,7.5,7.5s7.5-3.4,7.5-7.5V71h65
		v24.5c0,4.1,3.4,7.5,7.5,7.5s7.5-3.4,7.5-7.5V71h65v24.5c0,4.1,3.4,7.5,7.5,7.5s7.5-3.4,7.5-7.5V71h65v24.5c0,4.1,3.4,7.5,7.5,7.5
		s7.5-3.4,7.5-7.5V71h48.5C485,71,496,82,496,95.5V447.5z"/>
	<path class="st0" d="M471.5,136h-432c-4.1,0-7.5,3.4-7.5,7.5s3.4,7.5,7.5,7.5h432c4.1,0,7.5-3.4,7.5-7.5S475.6,136,471.5,136z"/>
	<path class="st0" d="M386.2,226.2L229.5,382.9c-3.3,3.3-8.7,3.3-12,0l-76.7-76.7c-2.9-2.9-7.7-2.9-10.6,0c-2.9,2.9-2.9,7.7,0,10.6
		l76.7,76.7c4.4,4.4,10.3,6.9,16.6,6.9s12.2-2.4,16.6-6.9l156.7-156.7c2.9-2.9,2.9-7.7,0-10.6C393.9,223.3,389.1,223.3,386.2,226.2z
		"/>
</g>
</svg>
