<?xml version="1.0" encoding="utf-8"?>
<!-- Generator: Adobe Illustrator 24.1.2, SVG Export Plug-In . SVG Version: 6.00 Build 0)  -->
<svg version="1.1" id="Capa_1" xmlns="http://www.w3.org/2000/svg" xmlns:xlink="http://www.w3.org/1999/xlink" x="0px" y="0px"
	 viewBox="0 0 120 120" style="enable-background:new 0 0 120 120;" xml:space="preserve">
<style type="text/css">
	.st0{fill:#FFFFFF;}
</style>
<g>
	<g>
		<path class="st0" d="M11.3,92.2v-0.1c0.9-0.2,1.6-0.7,2.2-1.5c0.5-0.8,0.8-1.7,0.8-2.7c0-1.6-0.6-2.8-1.9-3.6
			c-1.3-0.8-3.2-1.2-5.8-1.2H0v19h7.4c2.2,0,4-0.5,5.3-1.5c1.3-1,1.9-2.4,1.9-4.1c0-1.2-0.3-2.1-0.8-2.8
			C13.3,93,12.5,92.5,11.3,92.2z M5.1,87h1.4C8.2,87,9,87.6,9,88.6c0,0.6-0.2,1.1-0.6,1.4c-0.4,0.3-1,0.5-1.7,0.5H5.1V87z M6.9,98.2
			H5.1v-4h1.7c0.8,0,1.4,0.2,1.9,0.5c0.4,0.3,0.6,0.8,0.6,1.5C9.4,97.5,8.6,98.2,6.9,98.2z"/>
		<path class="st0" d="M27.9,94.3c0,1.4-0.2,2.4-0.7,3c-0.5,0.6-1.2,0.9-2.3,0.9c-1,0-1.7-0.3-2.2-0.9c-0.5-0.6-0.8-1.6-0.8-2.9
			V83.1h-5.2v11.6c0,2.5,0.7,4.4,2.1,5.7c1.4,1.3,3.4,2,6,2c2.7,0,4.7-0.7,6.1-2c1.4-1.4,2.1-3.3,2.1-5.8V83.1h-5.1
			C27.9,83.1,27.9,94.3,27.9,94.3z"/>
		<path class="st0" d="M40.8,87.3c0.3-0.2,0.8-0.4,1.5-0.4c1.3,0,2.8,0.4,4.6,1.2l1.6-4c-2-0.9-4.1-1.4-6-1.4c-2.2,0-4,0.5-5.3,1.5
			c-1.3,1-1.9,2.3-1.9,4.1c0,0.9,0.2,1.7,0.4,2.4s0.8,1.3,1.4,1.8c0.6,0.5,1.5,1.1,2.8,1.6c1.4,0.6,2.2,1,2.5,1.2
			c0.3,0.2,0.5,0.4,0.7,0.6c0.1,0.2,0.2,0.4,0.2,0.7c0,0.4-0.2,0.8-0.5,1c-0.4,0.3-0.9,0.4-1.7,0.4c-0.9,0-1.9-0.1-2.9-0.4
			c-1.1-0.3-2.1-0.7-3.1-1.2v4.6c0.9,0.4,1.8,0.8,2.7,0.9c0.9,0.2,1.9,0.3,3.2,0.3c1.5,0,2.8-0.3,4-0.8c1.1-0.5,2-1.2,2.6-2.1
			c0.6-0.9,0.9-2,0.9-3.1c0-1.3-0.3-2.4-1-3.2c-0.6-0.8-1.8-1.6-3.4-2.4c-1.7-0.8-2.8-1.3-3.1-1.6c-0.4-0.3-0.6-0.6-0.6-1
			C40.3,87.9,40.5,87.6,40.8,87.3z"/>
		<rect x="50.3" y="83.1" class="st0" width="5.2" height="19"/>
		<path class="st0" d="M72.1,91.7c0,1.2,0.1,2.7,0.2,4.6h-0.1l-6.9-13.2h-6.7v19h4.6v-8.6c0-1.1-0.1-2.7-0.2-4.8h0.1l6.9,13.4h6.7
			v-19h-4.6L72.1,91.7L72.1,91.7z"/>
		<polygon class="st0" points="79.7,102.2 91,102.2 91,98 84.8,98 84.8,94.4 90.5,94.4 90.5,90.3 84.8,90.3 84.8,87.3 91,87.3 
			91,83.1 79.7,83.1 		"/>
		<path class="st0" d="M98.1,87.3c0.3-0.2,0.8-0.4,1.5-0.4c1.3,0,2.8,0.4,4.6,1.2l1.6-4c-2-0.9-4.1-1.4-6-1.4c-2.2,0-4,0.5-5.3,1.5
			c-1.3,1-1.9,2.3-1.9,4.1c0,0.9,0.2,1.7,0.4,2.4c0.3,0.7,0.8,1.3,1.4,1.8c0.6,0.5,1.6,1.1,2.8,1.6c1.4,0.6,2.2,1,2.5,1.2
			c0.3,0.2,0.5,0.4,0.7,0.6c0.1,0.2,0.2,0.4,0.2,0.7c0,0.4-0.2,0.8-0.5,1c-0.4,0.3-0.9,0.4-1.7,0.4c-0.9,0-1.9-0.1-2.9-0.4
			c-1.1-0.3-2.1-0.7-3.1-1.2v4.6c0.9,0.4,1.8,0.8,2.7,0.9c0.9,0.2,1.9,0.3,3.2,0.3c1.5,0,2.8-0.3,4-0.8c1.1-0.5,2-1.2,2.6-2.1
			c0.6-0.9,0.9-2,0.9-3.1c0-1.3-0.3-2.4-1-3.2c-0.6-0.8-1.8-1.6-3.4-2.4c-1.7-0.8-2.8-1.3-3.1-1.6c-0.4-0.3-0.6-0.6-0.6-1
			C97.6,87.9,97.7,87.6,98.1,87.3z"/>
		<path class="st0" d="M115.6,90.8c-1.7-0.8-2.8-1.3-3.1-1.6s-0.6-0.6-0.6-1c0-0.3,0.2-0.6,0.5-0.9c0.3-0.2,0.8-0.4,1.5-0.4
			c1.3,0,2.8,0.4,4.6,1.2l1.6-4c-2-0.9-4.1-1.4-6-1.4c-2.2,0-4,0.5-5.3,1.5s-1.9,2.3-1.9,4.1c0,0.9,0.1,1.7,0.4,2.4
			c0.3,0.7,0.8,1.3,1.4,1.8c0.6,0.5,1.6,1.1,2.8,1.6c1.4,0.6,2.2,1,2.5,1.2c0.3,0.2,0.5,0.4,0.7,0.6c0.1,0.2,0.2,0.4,0.2,0.7
			c0,0.4-0.2,0.8-0.5,1c-0.4,0.3-0.9,0.4-1.7,0.4c-0.9,0-1.9-0.1-2.9-0.4c-1.1-0.3-2.1-0.7-3.1-1.2v4.6c0.9,0.4,1.8,0.8,2.7,0.9
			c0.9,0.2,1.9,0.3,3.2,0.3c1.5,0,2.8-0.3,4-0.8c1.1-0.5,2-1.2,2.6-2.1c0.6-0.9,0.9-2,0.9-3.1c0-1.3-0.3-2.4-1-3.2
			C118.4,92.3,117.3,91.6,115.6,90.8z"/>
		<circle class="st0" cx="73.6" cy="24.4" r="6.9"/>
		<circle class="st0" cx="96.3" cy="24.4" r="6.9"/>
		<path class="st0" d="M100.6,77.8c0,2,1.6,3.6,3.6,3.6h0c2,0,3.6-1.6,3.6-3.6l0-5h-7.3L100.6,77.8z"/>
		<path class="st0" d="M62,54.9l0,22.9c0,2,1.6,3.6,3.6,3.6c0,0,0,0,0,0c2,0,3.6-1.6,3.6-3.6l0-21.7c1.5-0.6,2.8-1.8,3.2-3.6
			l1.2-5.6c1.9,2.2,5.1,3.5,10.7,4.3c0.1,0,0.2,0,0.4,0c1.1,0,2.1-0.7,2.5-1.8c4.4-0.2,7.1-1.1,8.9-3l1.3,6.1
			c0.3,1.6,1.3,2.7,2.6,3.3h1.7c0.4-1,1.1-1.9,2.1-2.4c-0.9-4.3-2.2-8.5-3.2-11.1c-0.7-1.4,0.3-1.8,0.8-0.4c0.5,1.4,2.6,7.8,3.4,12
			c-1.3,0.4-2.2,1.5-2.4,2.8h-5.1v15.2h20.6V56.7h-5.1c-0.2-1.3-1.2-2.4-2.5-2.8c0-0.2,0-0.4,0-0.7c-0.3-1.7-4.5-18.1-4.5-18.1
			c-0.6-2.8-2.5-4.1-4.9-4.2l0,0c0,0-0.8,0-1.6,0.1c-0.8,0.1-1.4,0.5-1.4,0.5c-1.8,0.9-3.4,2.6-3.6,4.7c0,0.1-0.1,0.2-0.1,0.3
			c-0.5,3.3-0.9,5.3-1.9,6.2c-1,0.9-3.3,1.4-7.5,1.4c-1,0-1.8,0.5-2.3,1.3c-2.5-0.5-4-1.2-4.8-2.1c-1-1.2-1.4-3.4-1.9-6.8
			c0-0.1,0-0.2-0.1-0.3c-0.2-2.1-1.9-3.9-3.6-4.7c0,0-0.7-0.4-1.4-0.5c-0.7-0.1-1.6-0.1-1.6-0.1l0,0c-2.4,0.1-5.2,1.4-5.8,4.2
			l-3.2,14.8C59.7,51.9,60.6,53.7,62,54.9z M107.6,56.4c0.2,0,0.3,0,0.5-0.1c0.6-0.1,1.1-0.4,1.4-0.8c0.6,0.1,1.1,0.6,1.3,1.1h-6.6
			c0.2-0.6,0.7-1,1.3-1.1C106.1,56.1,106.8,56.4,107.6,56.4z"/>
	</g>
</g>
</svg>
