<svg width="514" height="187" viewBox="0 0 514 187" fill="none" xmlns="http://www.w3.org/2000/svg">
<g clip-path="url(#clip0_2043_2)">
<path d="M354.898 157.824C350.117 153.827 347.666 150.126 347.222 149.424L364.036 138.803C364.036 138.803 364.013 138.764 363.964 138.692C363.978 138.713 365.377 140.774 368.179 142.995C371.754 145.831 375.908 147.641 380.528 148.378C386.409 149.315 392.476 147.353 396.531 145.543C401.049 143.527 404.08 141.267 404.108 141.244L419.017 144.124L416.214 157.022C410.389 161.491 401.129 165.909 392.547 167.613C378.308 170.439 364.713 166.035 354.898 157.824Z" fill="#92B5F9"/>
<path d="M370.951 98.1934H176.787V118.519H370.951V98.1934Z" fill="#F47257"/>
<path d="M319.305 170.129C275.52 146.978 227.963 132.729 179.137 128.131C180.947 106.945 182.755 85.759 184.564 64.5731C241.018 69.889 296.004 86.3651 346.629 113.134C337.522 132.132 328.414 151.13 319.305 170.129Z" fill="#4951EC"/>
<path d="M183.442 116.509C184.676 103.297 185.908 90.0835 187.141 76.8715C192.272 77.3982 196.868 74.0863 197.428 69.3395C244.492 75.2509 290.361 88.9949 333.311 110.055C331.4 114.397 333.641 119.756 338.264 122.154C332.673 134.06 327.081 145.968 321.49 157.874C317.236 155.668 312.201 157.492 310.292 161.83C272.577 143.336 232.296 131.268 190.967 126.077C191.524 121.332 188.164 116.993 183.442 116.509Z" fill="#7C9AF2"/>
<path d="M284.478 118.69C280.532 130.055 268.361 135.845 257.072 132.376C245.789 128.878 238.54 117.094 241.078 105.294C243.607 93.5137 256.13 86.4552 268.826 90.3803C281.523 94.293 288.421 107.346 284.478 118.69Z" fill="#50BFA5"/>
<path d="M256.978 128.375C257.294 127.106 257.609 125.837 257.923 124.568C256.223 124.015 254.612 123.237 253.321 122.414C252.245 121.726 251.855 120.334 252.436 119.226C252.459 119.181 252.484 119.137 252.507 119.091C253.146 117.87 254.723 117.478 255.91 118.261C257.121 119.058 258.544 119.77 260.129 120.213C262.435 120.858 264.238 120.441 264.655 118.844C265.049 117.328 263.999 115.981 261.209 114.131C257.176 111.466 254.601 108.687 255.49 104.778C256.292 101.237 259.562 99.1195 264.321 99.5348C264.632 98.2642 264.943 96.9953 265.254 95.7246C266.654 96.1116 268.052 96.5075 269.449 96.9104C269.151 98.0839 268.85 99.2574 268.552 100.429C270.077 100.938 271.293 101.507 272.277 102.088C273.484 102.801 273.908 104.285 273.249 105.404C272.567 106.561 271.001 106.894 269.785 106.137C268.873 105.57 267.712 104.994 266.229 104.57C263.497 103.794 262.338 104.681 262.064 105.803C261.739 107.129 263.004 108.362 266.198 110.656C270.694 113.768 272.038 116.584 271.052 120.155C270.068 123.697 266.712 125.92 261.916 125.393C261.564 126.752 261.214 128.111 260.861 129.469C259.57 129.099 258.275 128.733 256.978 128.375Z" fill="#3C8F7C"/>
<path d="M234.392 104.852C223.232 102.278 211.966 100.18 200.618 98.5664C200.881 96.5287 201.143 94.4928 201.406 92.4552C212.911 94.0899 224.336 96.2177 235.652 98.8279C235.233 100.837 234.813 102.845 234.392 104.852Z" fill="#50BFA5"/>
<path d="M321.41 135.751C311.024 130.672 300.457 126.049 289.737 121.889C290.416 119.961 291.094 118.033 291.773 116.104C302.643 120.323 313.358 125.011 323.889 130.161C323.062 132.024 322.237 133.888 321.41 135.751Z" fill="#50BFA5"/>
<path d="M339.765 97.4123C294.59 106.849 251.572 125.764 212.978 153.157C202.55 135.163 192.123 117.17 181.694 99.176C226.317 67.5033 276.055 45.6353 328.288 34.7225C332.114 55.6185 335.938 76.5163 339.765 97.4123Z" fill="#4951EC"/>
<path d="M209.704 141.182C203.278 129.894 196.85 118.605 190.425 107.316C194.503 104.471 196.059 98.9163 193.835 94.7862C231.86 69.5569 273.349 51.3153 316.746 40.7454C317.746 45.4109 322.377 48.2474 327.12 47.2135C329.603 60.2346 332.088 73.2575 334.571 86.2786C330.205 87.2312 327.502 91.8826 328.502 96.5446C290.393 105.826 253.959 121.845 220.569 144.001C218.347 139.876 213.457 138.565 209.704 141.182Z" fill="#7C9AF2"/>
<path d="M285.494 78.6634C288.892 90.2089 283.122 102.551 272.863 106.971C262.594 111.365 250.7 106.607 246.02 95.6114C241.348 84.6367 246.671 71.0625 258.222 66.1106C269.767 61.1464 282.106 67.1374 285.494 78.6634Z" fill="#4951EC"/>
<path d="M270.573 103.852C270.101 102.643 269.629 101.435 269.157 100.224C267.595 100.866 265.975 101.272 264.564 101.438C263.389 101.576 262.327 100.717 262.14 99.4659C262.133 99.4164 262.125 99.3651 262.117 99.3156C261.91 97.9372 262.855 96.6241 264.168 96.4898C265.504 96.3537 266.952 96.0162 268.366 95.3605C270.426 94.4062 271.525 92.9288 270.948 91.393C270.396 89.9386 268.875 89.5357 265.787 89.8379C261.33 90.285 257.886 89.7124 256.371 86.0383C254.998 82.7123 256.235 78.9498 259.98 76.253C259.505 75.0459 259.029 73.8371 258.554 72.6301C259.803 72.0487 261.055 71.4726 262.309 70.9053C262.74 72.0275 263.17 73.1515 263.601 74.2737C265.01 73.7081 266.222 73.3883 267.273 73.2239C268.558 73.0224 269.696 73.9326 269.831 75.2421C269.969 76.5958 268.998 77.8559 267.682 78.0273C266.694 78.1563 265.517 78.4355 264.188 79.0435C261.74 80.1639 261.376 81.6078 261.799 82.6716C262.295 83.9335 263.914 84.1084 267.544 83.9017C272.589 83.5164 275.147 84.8984 276.401 88.3675C277.64 91.8101 276.398 95.7104 272.566 98.3419C273.061 99.6461 273.556 100.949 274.051 102.253C272.888 102.779 271.729 103.311 270.573 103.852Z" fill="#92B5F9"/>
<path d="M240.841 99.5136C231.172 104.563 221.691 110.061 212.42 115.993C211.483 114.207 210.545 112.42 209.608 110.635C219.008 104.617 228.624 99.0436 238.427 93.9238C239.231 95.7865 240.036 97.6492 240.841 99.5136Z" fill="#50BFA5"/>
<path d="M322.23 68.7422C311.743 71.3082 301.376 74.3532 291.153 77.863C290.584 75.8978 290.013 73.9344 289.444 71.9709C299.811 68.4117 310.322 65.3261 320.956 62.7229C321.382 64.7287 321.806 66.7346 322.23 68.7422Z" fill="#4951EC"/>
<path d="M346.973 136.902C299.993 134.055 252.943 140.95 208.302 157.225C202.156 137.045 196.011 116.864 189.865 96.686C241.479 77.8683 295.878 69.8944 350.199 73.1868C349.124 94.4257 348.048 115.664 346.973 136.902Z" fill="#4951EC"/>
<path d="M207.844 144.768C204.103 132.139 200.362 119.51 196.621 106.88C201.327 105.208 204.163 100.243 202.921 95.6592C246.491 81.3268 291.87 74.6766 337.352 75.9561C337.257 80.7365 341.187 84.7111 346.13 84.9673C345.559 98.2288 344.989 111.49 344.416 124.752C339.867 124.517 336.103 128.3 336.009 133.077C296.069 131.953 256.219 137.792 217.958 150.379C216.718 145.798 212.176 143.23 207.844 144.768Z" fill="#7C9AF2"/>
<path d="M297.541 104.365C298.22 116.44 289.626 126.855 278.425 128.412C267.222 129.94 256.539 122.18 254.461 110.297C252.384 98.4373 260.825 86.7116 273.429 84.9814C286.031 83.2407 296.866 92.312 297.541 104.365Z" fill="#4951EC"/>
<path d="M276.88 124.783C276.695 123.488 276.509 122.193 276.322 120.897C274.623 121.104 272.922 121.067 271.487 120.853C270.29 120.675 269.437 119.563 269.543 118.301C269.546 118.25 269.551 118.2 269.555 118.149C269.672 116.76 270.914 115.74 272.247 115.96C273.602 116.182 275.115 116.239 276.672 115.979C278.936 115.603 280.371 114.464 280.155 112.824C279.948 111.269 278.533 110.476 275.401 109.951C270.879 109.202 267.599 107.733 266.952 103.778C266.365 100.196 268.466 96.8821 272.809 95.265C272.619 93.9696 272.429 92.676 272.239 91.3806C273.613 91.1491 274.988 90.9246 276.364 90.7073C276.53 91.909 276.695 93.109 276.859 94.3107C278.388 94.1375 279.664 94.1481 280.743 94.2683C282.065 94.415 282.981 95.5973 282.809 96.8997C282.631 98.2464 281.374 99.2078 280.03 99.0257C279.02 98.8879 277.789 98.8472 276.329 99.0823C273.641 99.517 272.945 100.818 273.114 101.961C273.312 103.313 274.876 103.912 278.524 104.676C283.617 105.641 285.828 107.657 286.264 111.347C286.692 115.007 284.55 118.453 280.139 119.982C280.326 121.374 280.514 122.767 280.701 124.16C279.427 124.359 278.153 124.568 276.88 124.783Z" fill="#92B5F9"/>
<path d="M248.419 112.699C237.658 115.021 226.978 117.828 216.407 121.111C215.894 119.134 215.38 117.156 214.867 115.178C225.588 111.849 236.417 109.004 247.328 106.648C247.691 108.666 248.055 110.683 248.419 112.699Z" fill="#50BFA5"/>
<path d="M336.269 104.506C325.277 104.209 314.29 104.405 303.338 105.091C303.23 103.039 303.124 100.987 303.016 98.9339C314.122 98.2394 325.263 98.0397 336.409 98.3419C336.363 100.395 336.315 102.451 336.269 104.506Z" fill="#50BFA5"/>
<path d="M370.951 98.1934H176.787V183.647H370.951V98.1934Z" fill="#FA7167"/>
<path d="M370.951 161.829H322.907C320.777 161.829 319.049 163.637 319.049 165.867C319.049 168.097 320.776 169.907 322.907 169.907H316.677C314.548 169.907 312.819 171.715 312.819 173.945C312.819 176.175 314.546 177.983 316.677 177.983H317.757C315.626 177.983 313.899 179.791 313.899 182.021C313.899 182.599 314.016 183.147 314.224 183.644H370.953V161.829H370.951Z" fill="#E8605D"/>
<path d="M360.692 102.4H183.941V109.036H360.692V102.4Z" fill="#E8605D"/>
<path d="M260.113 182.585H181.995C177.937 182.585 174.648 179.296 174.648 175.239V136.861C174.648 132.803 177.937 129.514 181.995 129.514H260.113C264.17 129.514 267.459 132.803 267.459 136.861V175.239C267.459 179.296 264.17 182.585 260.113 182.585Z" fill="#7C9AF2"/>
<path d="M203.472 140.068H180.616V153.356H203.472V140.068Z" fill="#DDE8FE"/>
<path d="M261.585 136.702H221.055V139.183H261.585V136.702Z" fill="#DDE8FE"/>
<path d="M258.573 165.05H183.983V168.115H258.573V165.05Z" fill="#DDE8FE"/>
<path d="M258.573 172.266H183.983V175.331H258.573V172.266Z" fill="#DDE8FE"/>
<path d="M268.601 120.01H186.187V122.212H268.601V120.01Z" fill="#E8605D"/>
<path d="M328.748 100.407C335.916 93.2393 335.916 81.6179 328.748 74.45C321.58 67.2821 309.959 67.2821 302.791 74.45C295.623 81.6179 295.623 93.2393 302.791 100.407C309.959 107.575 321.58 107.575 328.748 100.407Z" fill="#DDE8FE"/>
<path d="M328.378 78.5804C333.265 85.5434 331.582 95.1484 324.619 100.035C317.656 104.921 308.051 103.239 303.165 96.2759C298.278 89.3129 299.961 79.7079 306.924 74.8214C313.887 69.935 323.492 71.6174 328.378 78.5804Z" fill="#92B5F9"/>
<path d="M317.55 98.2606L316.879 95.7776C315.744 96.0303 314.587 96.1169 313.6 96.0657C312.777 96.0233 312.128 95.3482 312.118 94.5228L312.116 94.4239C312.104 93.5155 312.867 92.7821 313.774 92.8404C314.698 92.9005 315.718 92.8387 316.739 92.563C318.229 92.16 319.091 91.31 318.809 90.2655C318.54 89.2723 317.534 88.8712 315.424 88.7422C312.374 88.5584 310.114 87.7666 309.428 85.2324C308.806 82.9332 309.939 80.6923 312.586 79.3881L311.914 76.9069L314.475 76.2141L315.097 78.5133C316.059 78.2995 316.873 78.2146 317.575 78.2129C318.43 78.2093 319.127 78.9021 319.137 79.7575C319.15 80.6428 318.425 81.3621 317.541 81.3427C316.879 81.3285 316.08 81.3886 315.157 81.6378C313.459 82.0973 313.109 82.9774 313.307 83.709C313.54 84.5715 314.602 84.8719 317.05 85.1087C320.456 85.3649 322.099 86.4624 322.734 88.8146C323.363 91.1403 322.253 93.5703 319.39 94.9064L320.111 97.5714L317.55 98.2606Z" fill="white"/>
<path d="M346.063 159.149C353.231 151.981 353.231 140.36 346.063 133.192C338.895 126.024 327.274 126.024 320.106 133.192C312.938 140.36 312.938 151.981 320.106 159.149C327.274 166.317 338.895 166.317 346.063 159.149Z" fill="#DDE8FE"/>
<path d="M345.694 137.322C350.58 144.285 348.898 153.89 341.935 158.777C334.972 163.663 325.367 161.981 320.48 155.018C315.594 148.055 317.276 138.45 324.239 133.563C331.202 128.677 340.807 130.359 345.694 137.322Z" fill="#92B5F9"/>
<path d="M334.866 157.002L334.194 154.521C333.06 154.774 331.902 154.86 330.916 154.809C330.092 154.767 329.444 154.092 329.433 153.266L329.431 153.167C329.419 152.259 330.182 151.526 331.089 151.586C332.013 151.646 333.033 151.584 334.055 151.308C335.544 150.905 336.407 150.055 336.124 149.011C335.855 148.018 334.85 147.616 332.74 147.487C329.689 147.304 327.429 146.512 326.743 143.978C326.121 141.678 327.254 139.438 329.901 138.133L329.23 135.652L331.791 134.959L332.413 137.259C333.374 137.045 334.189 136.96 334.89 136.958C335.746 136.955 336.442 137.647 336.453 138.503C336.463 139.388 335.74 140.107 334.857 140.088C334.194 140.074 333.395 140.134 332.473 140.383C330.775 140.843 330.425 141.723 330.623 142.454C330.856 143.317 331.918 143.619 334.366 143.854C337.771 144.11 339.415 145.208 340.049 147.56C340.678 149.886 339.568 152.316 336.705 153.652L337.426 156.317L334.866 157.002Z" fill="white"/>
<path d="M315.746 123.964C316.17 113.836 308.304 105.281 298.177 104.856C288.049 104.432 279.494 112.298 279.069 122.425C278.645 132.553 286.511 141.108 296.638 141.533C306.766 141.957 315.321 134.091 315.746 123.964Z" fill="#DDE8FE"/>
<path d="M312.817 123.582C313.041 115.078 306.33 108.003 297.826 107.778C289.323 107.554 282.247 114.265 282.023 122.769C281.798 131.272 288.51 138.348 297.013 138.572C305.517 138.797 312.592 132.086 312.817 123.582Z" fill="#92B5F9"/>
<path d="M292.648 133.079L293.524 130.661C292.45 130.216 291.453 129.622 290.675 129.014C290.025 128.507 289.882 127.581 290.347 126.899L290.403 126.818C290.916 126.066 291.96 125.906 292.669 126.475C293.39 127.056 294.261 127.59 295.256 127.95C296.707 128.477 297.902 128.276 298.271 127.259C298.621 126.293 298.029 125.386 296.377 124.068C293.985 122.164 292.589 120.219 293.485 117.752C294.296 115.512 296.511 114.328 299.427 114.781L300.303 112.363L302.797 113.268L301.986 115.507C302.896 115.884 303.612 116.283 304.186 116.684C304.888 117.174 305.061 118.14 304.578 118.847C304.08 119.577 303.074 119.752 302.36 119.227C301.827 118.833 301.137 118.425 300.24 118.1C298.586 117.501 297.794 118.018 297.536 118.731C297.232 119.57 297.928 120.427 299.796 122.026C302.436 124.193 303.15 126.035 302.32 128.325C301.498 130.589 299.195 131.943 296.083 131.389L295.141 133.985L292.648 133.079Z" fill="white"/>
<path d="M360.694 133.775H277.566V178.326H360.694V133.775Z" fill="#EB242A"/>
<path d="M319.049 165.869C319.049 168.099 320.776 169.909 322.907 169.909H316.677C314.548 169.909 312.819 171.716 312.819 173.947C312.819 176.177 314.546 177.985 316.677 177.985H317.757C317.206 177.985 316.681 178.107 316.207 178.326H360.696V161.83H322.909C320.776 161.829 319.049 163.638 319.049 165.869Z" fill="#E8605D"/>
<path d="M370.43 178.854H320.814C318.824 178.854 317.209 177.241 317.209 175.249C317.209 173.259 318.822 171.644 320.814 171.644H370.43C372.42 171.644 374.035 173.257 374.035 175.249C374.033 177.241 372.42 178.854 370.43 178.854Z" fill="#C8141A"/>
<path d="M376.251 171.644H326.636C324.646 171.644 323.031 170.03 323.031 168.039C323.031 166.049 324.644 164.434 326.636 164.434H376.251C378.241 164.434 379.857 166.047 379.857 168.039C379.857 170.03 378.243 171.644 376.251 171.644Z" fill="#EB242A"/>
<path d="M138.517 117.446C138.858 117.998 138.761 118.712 138.284 119.152C137.351 120.014 135.864 121.023 134.055 121.702C131.407 122.695 128.468 122.792 125.819 121.589C124.163 120.838 122.649 119.484 121.581 117.732L120.017 118.319C119.485 118.519 118.893 118.25 118.694 117.718L118.678 117.678C118.478 117.146 118.747 116.554 119.279 116.354L120.562 115.872C120.355 115.446 120.21 115.179 120.12 114.938C119.97 114.537 119.828 114.041 119.713 113.489L118.39 113.986C117.858 114.186 117.266 113.915 117.066 113.385C116.866 112.853 117.135 112.261 117.667 112.061L119.272 111.459C119.021 109.448 119.286 107.472 120.037 105.816C121.314 103.002 123.721 101 126.489 99.961C128.103 99.3548 129.43 99.1763 130.504 99.1657C131.25 99.1586 131.87 99.7418 131.904 100.488L131.906 100.511C131.943 101.283 131.338 101.931 130.566 101.962C129.686 101.997 128.647 102.172 127.443 102.624C125.678 103.287 124.124 104.512 123.232 106.403C122.73 107.507 122.495 108.831 122.762 110.149L131.789 106.761C132.321 106.562 132.913 106.83 133.113 107.362C133.312 107.894 133.044 108.486 132.512 108.686L123.084 112.224C123.209 112.68 123.334 113.138 123.44 113.417C123.577 113.777 123.711 114.14 123.932 114.604L133.38 111.059C133.922 110.856 134.528 111.13 134.731 111.673C134.935 112.215 134.661 112.821 134.118 113.025L125.072 116.419C125.789 117.478 126.728 118.27 127.721 118.72C129.691 119.583 131.508 119.542 133.514 118.789C134.737 118.33 135.753 117.701 136.527 117.091C137.16 116.594 138.091 116.757 138.517 117.446Z" fill="#EB242A"/>
<path d="M358.13 13.2981L362.515 14.7437C362.515 14.7437 369.467 12.4905 370.151 11.0749C370.835 9.65759 371.029 6.22028 372.017 6.12661C373.007 6.03295 374.919 6.35459 375.373 8.7068C375.704 10.414 373.203 15.3517 373.593 15.8766C373.837 16.2053 376.334 17.1083 378.169 17.7392C379.376 18.1528 380.245 19.2149 380.431 20.4962V20.4997C380.556 21.3656 380.065 22.2086 379.256 22.5214L377.994 23.0092L378.397 24.3117C378.697 25.2819 378.165 26.3228 377.207 26.6444L376.232 26.9714L376.545 27.7649C376.946 28.7863 376.38 29.9457 375.331 30.2514L374.479 30.4988L374.514 30.7268C374.661 31.6758 374.067 32.5877 373.146 32.828L372.3 33.0507L360.622 29.1963C359.528 28.8358 358.521 28.2509 357.662 27.4768L353.784 25.4303C353.367 25.2112 353.176 24.7128 353.332 24.2586L356.926 13.9061C357.101 13.4059 357.637 13.1355 358.13 13.2981Z" fill="#EB242A"/>
<path d="M15.8911 49.5433L66.4831 75.5932C69.2059 76.9956 72.6477 75.7326 74.1704 72.7747L87.09 47.683C88.6127 44.7251 87.6409 41.1904 84.9194 39.788L34.3274 13.7381C31.6046 12.3357 28.1628 13.5987 26.6401 16.5566L13.7205 41.6483C12.1964 44.6062 13.1696 48.1409 15.8911 49.5433Z" fill="#EB242A"/>
<path d="M17.9317 33.4712L14.012 41.0837L74.4651 72.2112L78.3848 64.5987L17.9317 33.4712Z" fill="#0B0754"/>
<path d="M46.6543 24.1934L33.3323 17.3203L29.52 24.7096L42.842 31.5827L46.6543 24.1934Z" fill="white"/>
<path d="M69 182.343C69 183.062 69.7238 183.645 70.618 183.645H474.013C474.907 183.645 475.631 183.062 475.631 182.343C475.631 181.624 474.907 181.041 474.013 181.041H70.618C69.7238 181.041 69 181.624 69 182.343Z" fill="#4951EC"/>
<path d="M446.379 26.9778C452.202 35.275 450.196 46.7215 441.899 52.5446C433.602 58.3677 422.155 56.3619 416.332 48.0646C410.509 39.7674 412.515 28.3209 420.812 22.4978C429.109 16.6747 440.556 18.6805 446.379 26.9778Z" fill="#DDE8FE"/>
<path d="M443.961 28.6742C448.848 35.6372 447.165 45.2422 440.202 50.1287C433.239 55.0152 423.634 53.3327 418.748 46.3698C413.861 39.4068 415.544 29.8018 422.507 24.9153C429.47 20.0288 439.075 21.7113 443.961 28.6742Z" fill="#92B5F9"/>
<path d="M433.133 48.3562L432.462 45.8732C431.327 46.126 430.169 46.2126 429.181 46.1613C428.358 46.1189 427.709 45.4438 427.699 44.6185L427.697 44.5195C427.685 43.6112 428.448 42.8778 429.355 42.9378C430.279 42.9979 431.299 42.9361 432.32 42.6604C433.81 42.2574 434.672 41.4074 434.39 40.3629C434.121 39.3698 433.115 38.9686 431.005 38.8396C427.955 38.6558 425.695 37.8641 425.009 35.3298C424.387 33.0306 425.52 30.7897 428.167 29.4855L427.496 27.0043L430.056 26.3115L430.678 28.6107C431.64 28.3969 432.454 28.3121 433.156 28.3103C434.011 28.3068 434.708 28.9995 434.718 29.8549C434.729 30.7403 434.006 31.4595 433.122 31.4401C432.46 31.426 431.661 31.486 430.738 31.7352C429.04 32.1947 428.69 33.0748 428.888 33.8064C429.121 34.6689 430.184 34.9693 432.631 35.2061C436.037 35.4624 437.68 36.5598 438.316 38.912C438.946 41.2377 437.836 43.6677 434.973 45.0038L435.694 47.6688L433.133 48.3562Z" fill="white"/>
<path d="M371.437 186.063H321.822C319.832 186.063 318.217 184.449 318.217 182.458C318.217 180.468 319.83 178.853 321.822 178.853H371.437C373.427 178.853 375.043 180.466 375.043 182.458C375.043 184.449 373.429 186.063 371.437 186.063Z" fill="#EB242A"/>
</g>
<path d="M513.5 154.116C513.5 156.601 511.485 158.616 509 158.616C506.515 158.616 504.5 156.601 504.5 154.116H513.5ZM383.804 107.837C381.408 107.177 380.001 104.699 380.662 102.303L391.421 63.2586C392.081 60.8626 394.559 59.4555 396.955 60.1158C399.351 60.776 400.758 63.2536 400.097 65.6496L390.534 100.356L425.24 109.92C427.636 110.58 429.043 113.058 428.383 115.454C427.723 117.85 425.245 119.257 422.849 118.596L383.804 107.837ZM504.5 154.116C504.5 116.186 454.672 69.1047 387.222 107.412L382.778 99.5858C455.885 58.0659 513.5 108.896 513.5 154.116H504.5Z" fill="#4A52EC"/>
<defs>
<clipPath id="clip0_2043_2">
<rect width="473" height="185.897" fill="white" transform="translate(0 0.165649)"/>
</clipPath>
</defs>
</svg>
