<?xml version="1.0" encoding="utf-8"?>
<!-- Generator: Adobe Illustrator 24.1.2, SVG Export Plug-In . SVG Version: 6.00 Build 0)  -->
<svg version="1.1" id="Слой_1" xmlns="http://www.w3.org/2000/svg" xmlns:xlink="http://www.w3.org/1999/xlink" x="0px" y="0px"
	 viewBox="0 0 463 463" style="enable-background:new 0 0 463 463;" xml:space="preserve">
<style type="text/css">
	.st0{fill:#FFFFFF;}
</style>
<g>
	<g>
		<path class="st0" d="M404.8,90.2l-88-88c-1.4-1.4-3.3-2.2-5.3-2.2h-232C66.5,0,56,10.5,56,23.5v416c0,13,10.5,23.5,23.5,23.5h304
			c13,0,23.5-10.5,23.5-23.5v-344C407,93.5,406.2,91.6,404.8,90.2z M319,25.6L381.4,88h-53.9c-4.7,0-8.5-3.8-8.5-8.5
			C319,79.5,319,25.6,319,25.6z M383.5,448h-304c-4.7,0-8.5-3.8-8.5-8.5v-416c0-4.7,3.8-8.5,8.5-8.5H304v64.5
			c0,13,10.5,23.5,23.5,23.5H392v336.5C392,444.2,388.2,448,383.5,448z"/>
		<path class="st0" d="M111.5,63h56c4.1,0,7.5-3.4,7.5-7.5s-3.4-7.5-7.5-7.5h-56c-4.1,0-7.5,3.4-7.5,7.5S107.4,63,111.5,63z"/>
		<path class="st0" d="M111.5,103h88c4.1,0,7.5-3.4,7.5-7.5s-3.4-7.5-7.5-7.5h-88c-4.1,0-7.5,3.4-7.5,7.5S107.4,103,111.5,103z"/>
		<path class="st0" d="M176,159.5c0,4.1,3.4,7.5,7.5,7.5h96c4.1,0,7.5-3.4,7.5-7.5s-3.4-7.5-7.5-7.5h-96
			C179.4,152,176,155.4,176,159.5z"/>
		<path class="st0" d="M351.5,192h-240c-4.1,0-7.5,3.4-7.5,7.5s3.4,7.5,7.5,7.5h240c4.1,0,7.5-3.4,7.5-7.5S355.6,192,351.5,192z"/>
		<path class="st0" d="M255.5,336h-56c-4.1,0-7.5,3.4-7.5,7.5s3.4,7.5,7.5,7.5h56c4.1,0,7.5-3.4,7.5-7.5S259.6,336,255.5,336z"/>
		<path class="st0" d="M255.5,376h-56c-4.1,0-7.5,3.4-7.5,7.5s3.4,7.5,7.5,7.5h56c4.1,0,7.5-3.4,7.5-7.5S259.6,376,255.5,376z"/>
		<path class="st0" d="M351.5,232h-240c-4.1,0-7.5,3.4-7.5,7.5s3.4,7.5,7.5,7.5h240c4.1,0,7.5-3.4,7.5-7.5S355.6,232,351.5,232z"/>
		<path class="st0" d="M351.5,272h-240c-4.1,0-7.5,3.4-7.5,7.5s3.4,7.5,7.5,7.5h240c4.1,0,7.5-3.4,7.5-7.5S355.6,272,351.5,272z"/>
		<path class="st0" d="M319.5,328c-21.8,0-39.5,17.7-39.5,39.5s17.7,39.5,39.5,39.5s39.5-17.7,39.5-39.5S341.3,328,319.5,328z
			 M319.5,392c-13.5,0-24.5-11-24.5-24.5s11-24.5,24.5-24.5s24.5,11,24.5,24.5S333,392,319.5,392z"/>
		<path class="st0" d="M319.5,354c-7.4,0-13.5,6.1-13.5,13.5s6.1,13.5,13.5,13.5s13.5-6.1,13.5-13.5S326.9,354,319.5,354z"/>
	</g>
</g>
</svg>
