<?xml version="1.0" encoding="utf-8"?>
<!-- Generator: Adobe Illustrator 24.1.2, SVG Export Plug-In . SVG Version: 6.00 Build 0)  -->
<svg version="1.1" id="Capa_1" xmlns="http://www.w3.org/2000/svg" xmlns:xlink="http://www.w3.org/1999/xlink" x="0px" y="0px"
	 viewBox="0 0 302 302" style="enable-background:new 0 0 302 302;" xml:space="preserve">
<style type="text/css">
	.st0{fill:#FFFFFF;}
</style>
<g>
	<path class="st0" d="M245.1,100.4h-51c-9.8,0-17.9-7.1-19.4-16.5c12.9-8,21.6-22.3,21.6-38.6C196.3,20.3,176,0,151,0
		c-25,0-45.3,20.3-45.3,45.3c0,16.3,8.6,30.6,21.6,38.6c-1.5,9.3-9.6,16.5-19.4,16.5h-51L31.4,302h239.2L245.1,100.4z M151,24.1
		c11.7,0,21.2,9.5,21.2,21.2s-9.5,21.2-21.2,21.2c-11.7,0-21.2-9.5-21.2-21.2C129.8,33.6,139.3,24.1,151,24.1z M142.1,225.5
		l-20-29.8l-5.8,6.7v23.1h-7.8v-60.7h7.8v29.2h0.3c1.6-2.3,3.2-4.5,4.8-6.5l18.5-22.8h9.7l-22,25.7l23.7,34.9L142.1,225.5
		L142.1,225.5z M193.8,193.9v25.3c0,10-2,16.1-6.2,19.9c-4.2,4-10.4,5.2-15.8,5.2c-5.2,0-11-1.3-14.5-3.6l2-6
		c2.9,1.8,7.4,3.4,12.8,3.4c8.1,0,14-4.2,14-15.2V218h-0.2c-2.4,4.1-7.1,7.3-13.9,7.3c-10.8,0-18.5-9.2-18.5-21.2
		c0-14.8,9.6-23.1,19.6-23.1c7.6,0,11.7,4,13.6,7.6h0.2l0.4-6.6h6.9C193.9,185.1,193.8,188.6,193.8,193.9z"/>
	<path class="st0" d="M174.4,187.1c-7.6,0-13,6.4-13,16.5c0,8.6,4.3,15.7,12.9,15.7c4.9,0,9.3-3.1,11-8.1c0.4-1.4,0.6-2.9,0.6-4.2
		v-7.8c0-1.4-0.1-2.5-0.4-3.6C184,190.9,180.2,187.1,174.4,187.1z"/>
</g>
</svg>
