<?xml version="1.0" encoding="utf-8"?>
<!-- Generator: Adobe Illustrator 24.1.2, SVG Export Plug-In . SVG Version: 6.00 Build 0)  -->
<svg version="1.1" id="Слой_1" xmlns="http://www.w3.org/2000/svg" xmlns:xlink="http://www.w3.org/1999/xlink" x="0px" y="0px"
	 viewBox="0 0 512 512" style="enable-background:new 0 0 512 512;" xml:space="preserve">
<style type="text/css">
	.st0{fill:#e7e9e6;}
	.st1{fill:#2573FB;}
	.st2{fill:#2573FB;}
</style>
<rect x="0.8" y="70.8" class="st0" width="44" height="361.5"/>
<rect x="467.1" y="70.4" class="st0" width="43.8" height="361.5"/>
<path class="st1" d="M263.7,97.8c1.3-1.6,1.9-3.4-1-4.7c-1.4-0.6-4.7-1.4-7-1.3c-3.1,0.3-5.7,1.8-7.1,2.7c-0.1,0.1-0.2,0.1-0.3,0.2
	c3.3,0.3,6.4,0.7,9.3,1.3C260.2,96.5,262.2,97.1,263.7,97.8z"/>
<path class="st1" d="M268.7,107.4c-2,0.2-3.9,0.5-5.7,0.9c-1.1,1.2-2.3,2.3-3.1,3.4c4.7,0,9.9-0.7,12.4-1.9
	C274.7,108.5,273.1,107,268.7,107.4z"/>
<path class="st0" d="M256.5,9L54.7,70l201.8,61l201.8-61L256.5,9z M256.8,114.7c-3.1-0.4-4.4-1.1-3.9-2.1c0-0.1,0.1-0.1,0.1-0.2
	c-2.7,0.9-5.6,1.8-8.8,2.6c-5.5,1.3-12.9-0.7-7.9-2.4c3.6-1.2,7.2-2.3,11.1-3.4c1.9-0.7,3.8-1.5,5.5-2.2c3.1-1.3,6.1-2.6,8.7-4
	c1-2.2-0.9-3.8-9.2-4.7c-1.9-0.2-3.8-0.4-5.8-0.6c-2.2,1.5-3.8,3.1-4.3,4.6c-0.7,2.2-11.9,2.2-11.2,0c0.6-1.8,2.2-3.7,4.5-5.5
	c-9.3-0.7-18.8-1.2-28.1-1.8c-7.4-0.5-14.9-1-22.2-1.7c-7.4-0.7-14.7-1.4-22.5-1.5c-7.2-0.1-7.2-3.4,0-3.4c8.9,0.1,17,0.9,25.5,1.6
	c8.6,0.8,17.5,1.4,26.3,1.9c8.6,0.6,17.2,1.1,25.7,1.7c0,0,0.1,0,0.1,0c1.9-1,4-2,6.3-2.8c7.8-2.9,18.9-3.4,28.1-0.7
	c7.7,2.3,7.7,5.6,4.9,8.6c-1.7,1.8-4.2,3.5-7.2,5.1c3.5-0.3,7.1-0.3,10.5,0.2c9.6,1.4,10.2,5.6,3.9,7.8
	C280.2,114.5,266.8,115.8,256.8,114.7z"/>
<path class="st0" d="M256.3,492.9l202.1-60.2L256.8,371L54.7,431.2L256.3,492.9z M256.5,387.3c3.1,0.4,4.4,1.1,3.9,2.1
	c0,0.1-0.1,0.1-0.1,0.2c2.7-0.9,5.6-1.8,8.8-2.5c5.6-1.3,12.9,0.8,7.9,2.4c-3.6,1.2-7.3,2.3-11.1,3.4c-1.9,0.7-3.8,1.4-5.6,2.2
	c-3.1,1.3-6.1,2.6-8.8,4c-1,2.2,0.9,3.8,9.2,4.7c1.9,0.2,3.8,0.4,5.8,0.6c2.2-1.5,3.8-3.1,4.3-4.6c0.7-2.1,12-2.1,11.2,0
	c-0.6,1.8-2.2,3.7-4.6,5.5c9.3,0.7,18.8,1.3,28.1,1.9c7.4,0.5,14.9,1.1,22.2,1.8c7.4,0.7,14.7,1.5,22.5,1.6c7.2,0.1,7.2,3.5,0,3.4
	c-8.9-0.1-17-0.9-25.4-1.7c-8.6-0.8-17.5-1.4-26.3-2.1c-8.6-0.6-17.2-1.2-25.7-1.8c0,0-0.1,0-0.1,0c-1.9,1-4,2-6.3,2.8
	c-7.8,2.9-18.9,3.3-28.1,0.6c-7.7-2.3-7.7-5.7-4.9-8.6c1.7-1.8,4.2-3.5,7.2-5.1c-3.5,0.3-7.1,0.3-10.5-0.3
	c-9.6-1.5-10.1-5.6-3.8-7.9C233,387.3,246.4,386.1,256.5,387.3z"/>
<rect x="54.7" y="70.8" class="st0" width="403.7" height="361.1"/>
<g>
	<g>
		<path class="st2" d="M123.6,413.8H119V91.6 M119,91.6h65v143l131.4-143h87.5L281.6,217.1l127.9,196.7h-84.2l-88.5-151.2
			l-52.7,53.8v97.3h-60.4"/>
	</g>
</g>
<polyline class="st0" points="139,240.1 139,421.6 129,421.6 129,97.8 139,97.8 139,240.1 "/>
<rect x="146.5" y="97.8" class="st0" width="10" height="323.8"/>
<rect x="162.5" y="97.8" class="st0" width="10" height="323.8"/>
</svg>
