<svg width="26" height="20" viewBox="0 0 26 20" fill="none" xmlns="http://www.w3.org/2000/svg">
<path fill-rule="evenodd" clip-rule="evenodd" d="M16.3324 14.8151C15.8037 14.1413 14.9451 13.1651 14.2101 13.0726C13.763 13.0163 13.2491 13.3913 12.7426 13.7451C12.6438 13.7951 11.8804 14.2551 11.7877 14.2826C11.2985 14.4238 10.2547 14.4651 9.62349 13.8826C9.01572 13.3201 8.05466 12.2788 7.2789 11.3251C6.53772 10.3426 5.76072 9.16133 5.36296 8.43633C4.9479 7.68508 5.24684 6.69133 5.50378 6.25383C5.55072 6.17508 6.11896 5.58383 6.24619 5.44633L6.26472 5.46883C6.73537 5.06883 7.22825 4.66258 7.28384 4.22258C7.37525 3.49008 6.63531 2.42383 6.1066 1.74883C5.5779 1.07258 4.7589 -0.111171 3.64343 0.0563291C3.22343 0.118829 2.86149 0.267579 2.50449 0.481329L2.4946 0.470079L2.43531 0.516329L2.40443 0.532579L2.40813 0.537579C2.20307 0.697579 1.61754 1.14008 1.55084 1.20008C0.826956 1.85133 -0.262573 3.38508 0.579897 6.14383C1.20496 8.19383 2.53784 10.6013 4.35372 13.0363L4.34384 13.0451C4.43278 13.1626 4.52419 13.2688 4.61684 13.3826C4.70331 13.4988 4.78854 13.6138 4.87749 13.7288L4.88984 13.7201C6.8169 16.0688 8.83784 17.9463 10.6821 19.0538C13.1651 20.5438 14.9303 19.8726 15.7456 19.3388C15.8222 19.2876 16.4053 18.8288 16.6029 18.6776L16.6078 18.6826C16.6152 18.6751 16.6202 18.6651 16.6301 18.6576C16.6479 18.644 16.6656 18.6302 16.6832 18.6163L16.6758 18.6063C16.9747 18.3138 17.2144 18.0013 17.3799 17.6076C17.8135 16.5713 16.8611 15.4913 16.3324 14.8151Z" fill="#438BE3"/>
<path d="M13 7.03679C13 6.85408 13.066 6.67755 13.1858 6.53984C13.3057 6.40214 13.4712 6.31258 13.6518 6.28774L13.7544 6.28068L22.4251 6.28169L19.4378 3.29151C19.3096 3.16355 19.2316 2.99369 19.2179 2.81289C19.2042 2.63209 19.2559 2.45239 19.3633 2.30654L19.4358 2.22186C19.5635 2.09354 19.7331 2.01552 19.9135 2.00201C20.0938 1.9885 20.2731 2.04041 20.4185 2.14827L20.5029 2.22085L24.7777 6.49844L24.8411 6.56901L24.9004 6.66176L24.9215 6.69805L24.9598 6.78979L24.9899 6.91077L24.998 6.98134L25 7.04183C24.9999 7.09266 24.9945 7.14334 24.9839 7.19305L24.9608 7.27572C24.9298 7.37116 24.8799 7.45931 24.8139 7.53482L20.504 11.8598C20.3695 11.9954 20.1888 12.075 19.9982 12.0824C19.8076 12.0899 19.6213 12.0247 19.4767 11.9C19.3321 11.7753 19.24 11.6003 19.219 11.4103C19.198 11.2202 19.2496 11.0293 19.3633 10.8758L19.4368 10.7911L22.4211 7.79391L13.7544 7.79391C13.5543 7.79391 13.3624 7.71425 13.2209 7.57245C13.0795 7.43065 13 7.23733 13 7.03679Z" fill="#438BE3" stroke="#438BE3" stroke-width="0.75"/>
</svg>
