<?xml version="1.0" encoding="utf-8"?>
<!-- Generator: Adobe Illustrator 24.1.2, SVG Export Plug-In . SVG Version: 6.00 Build 0)  -->
<svg version="1.1" id="Layer_1" xmlns="http://www.w3.org/2000/svg" xmlns:xlink="http://www.w3.org/1999/xlink" x="0px" y="0px"
	 viewBox="0 0 512 512" style="enable-background:new 0 0 512 512;" xml:space="preserve">
<style type="text/css">
	.st0{fill:#FFFFFF;}
</style>
<g>
	<g>
		<path class="st0" d="M420.1,42.7V16.4h-39.4v26.3h-105V16.4h-39.4v26.3h-105V16.4H91.9v26.3H0v452.9h512V42.7H420.1z M472.6,456.2
			H39.4V193.6h433.2L472.6,456.2L472.6,456.2z M472.6,154.3H39.4V82.1h52.5v26.3h39.4V82.1h105v26.3h39.4V82.1h105v26.3h39.4V82.1
			h52.5L472.6,154.3L472.6,154.3z"/>
	</g>
</g>
<g>
	<g>
		<circle class="st0" cx="131.3" cy="259.3" r="19.7"/>
	</g>
</g>
<g>
	<g>
		<circle class="st0" cx="214.4" cy="259.3" r="19.7"/>
	</g>
</g>
<g>
	<g>
		<circle class="st0" cx="297.6" cy="259.3" r="19.7"/>
	</g>
</g>
<g>
	<g>
		<circle class="st0" cx="380.7" cy="259.3" r="19.7"/>
	</g>
</g>
<g>
	<g>
		<circle class="st0" cx="131.3" cy="324.9" r="19.7"/>
	</g>
</g>
<g>
	<g>
		<circle class="st0" cx="214.4" cy="324.9" r="19.7"/>
	</g>
</g>
<g>
	<g>
		<circle class="st0" cx="297.6" cy="324.9" r="19.7"/>
	</g>
</g>
<g>
	<g>
		<circle class="st0" cx="380.7" cy="324.9" r="19.7"/>
	</g>
</g>
<g>
	<g>
		<circle class="st0" cx="131.3" cy="390.6" r="19.7"/>
	</g>
</g>
<g>
	<g>
		<circle class="st0" cx="214.4" cy="390.6" r="19.7"/>
	</g>
</g>
<g>
	<g>
		<circle class="st0" cx="297.6" cy="390.6" r="19.7"/>
	</g>
</g>
<g>
	<g>
		<circle class="st0" cx="380.7" cy="390.6" r="19.7"/>
	</g>
</g>
</svg>
